<svg width="24" height="24" viewBox="0 0 24 24" fill="none" xmlns="http://www.w3.org/2000/svg">
<path d="M9.2 2.375V5.8125H14.8V2.375C14.8 1.61445 14.1744 1 13.4 1H10.6C9.82562 1 9.2 1.61445 9.2 2.375ZM9.2 7.875C6.88125 7.875 5 9.72266 5 12V20.9375C5 22.0762 5.94063 23 7.1 23H16.9C18.0594 23 19 22.0762 19 20.9375V12C19 9.72266 17.1188 7.875 14.8 7.875H9.2ZM12 12C13.9338 12 15.5 13.5383 15.5 15.4375C15.5 17.3367 13.9338 18.875 12 18.875C10.0662 18.875 8.5 17.3367 8.5 15.4375C8.5 13.5383 10.0662 12 12 12Z" fill="#08C481"/>
</svg>
