<svg width="24" height="24" viewBox="0 0 24 24" fill="none" xmlns="http://www.w3.org/2000/svg">
<g clip-path="url(#clip0_181_469)">
<path d="M12.0002 14.9099C13.0611 14.9099 14.0785 14.4885 14.8287 13.7384C15.5788 12.9882 16.0002 11.9708 16.0002 10.9099C15.9727 10.0651 15.7356 9.2404 15.3102 8.50994C14.6402 7.13994 13.9502 5.72994 15.6802 1.50994C15.7884 1.30464 15.8217 1.06812 15.7746 0.840914C15.7275 0.613707 15.6028 0.409956 15.422 0.26457C15.2411 0.119184 15.0154 0.0412136 14.7834 0.0440184C14.5513 0.0468233 14.3275 0.130229 14.1502 0.279944C12.4502 1.54994 7.25022 5.40994 8.00022 10.9999C8.0704 12.0292 8.51691 12.9966 9.25463 13.7177C9.99235 14.4388 10.9697 14.8632 12.0002 14.9099Z" fill="#08C481"/>
<path d="M22.5 10.91H18.5C18.2449 10.9096 17.9992 11.0067 17.8133 11.1814C17.6274 11.3562 17.5153 11.5954 17.5 11.85C17.5 13.3087 16.9205 14.7077 15.8891 15.7391C14.8576 16.7706 13.4587 17.35 12 17.35C10.5413 17.35 9.14236 16.7706 8.11091 15.7391C7.07946 14.7077 6.5 13.3087 6.5 11.85C6.48469 11.5954 6.37261 11.3562 6.18671 11.1814C6.00081 11.0067 5.75514 10.9096 5.5 10.91H1.5C1.10218 10.91 0.720644 11.0681 0.43934 11.3494C0.158035 11.6307 0 12.0122 0 12.41L0 22.41C0 22.8079 0.158035 23.1894 0.43934 23.4707C0.720644 23.752 1.10218 23.91 1.5 23.91H22.5C22.8978 23.91 23.2794 23.752 23.5607 23.4707C23.842 23.1894 24 22.8079 24 22.41V12.41C24 12.0122 23.842 11.6307 23.5607 11.3494C23.2794 11.0681 22.8978 10.91 22.5 10.91ZM1.5 15.41C1.5 15.1448 1.60536 14.8905 1.79289 14.7029C1.98043 14.5154 2.23478 14.41 2.5 14.41C2.76522 14.41 3.01957 14.5154 3.20711 14.7029C3.39464 14.8905 3.5 15.1448 3.5 15.41C3.5 15.6753 3.39464 15.9296 3.20711 16.1171C3.01957 16.3047 2.76522 16.41 2.5 16.41C2.23478 16.41 1.98043 16.3047 1.79289 16.1171C1.60536 15.9296 1.5 15.6753 1.5 15.41ZM3.5 22.41C3.23478 22.41 2.98043 22.3047 2.79289 22.1171C2.60536 21.9296 2.5 21.6753 2.5 21.41C2.5 21.1448 2.60536 20.8905 2.79289 20.7029C2.98043 20.5154 3.23478 20.41 3.5 20.41C3.76522 20.41 4.01957 20.5154 4.20711 20.7029C4.39464 20.8905 4.5 21.1448 4.5 21.41C4.5 21.6753 4.39464 21.9296 4.20711 22.1171C4.01957 22.3047 3.76522 22.41 3.5 22.41ZM7 18.9C6.73478 18.9 6.48043 18.7947 6.29289 18.6071C6.10536 18.4196 6 18.1653 6 17.9C6 17.6348 6.10536 17.3805 6.29289 17.1929C6.48043 17.0054 6.73478 16.9 7 16.9C7.26522 16.9 7.51957 17.0054 7.70711 17.1929C7.89464 17.3805 8 17.6348 8 17.9C8 18.1653 7.89464 18.4196 7.70711 18.6071C7.51957 18.7947 7.26522 18.9 7 18.9ZM9 22.41C8.73478 22.41 8.48043 22.3047 8.29289 22.1171C8.10536 21.9296 8 21.6753 8 21.41C8 21.1448 8.10536 20.8905 8.29289 20.7029C8.48043 20.5154 8.73478 20.41 9 20.41C9.26522 20.41 9.51957 20.5154 9.70711 20.7029C9.89464 20.8905 10 21.1448 10 21.41C10 21.6753 9.89464 21.9296 9.70711 22.1171C9.51957 22.3047 9.26522 22.41 9 22.41ZM14.5 22.41C14.2348 22.41 13.9804 22.3047 13.7929 22.1171C13.6054 21.9296 13.5 21.6753 13.5 21.41C13.5 21.1448 13.6054 20.8905 13.7929 20.7029C13.9804 20.5154 14.2348 20.41 14.5 20.41C14.7652 20.41 15.0196 20.5154 15.2071 20.7029C15.3946 20.8905 15.5 21.1448 15.5 21.41C15.5 21.6753 15.3946 21.9296 15.2071 22.1171C15.0196 22.3047 14.7652 22.41 14.5 22.41ZM17 18.9C16.7348 18.9 16.4804 18.7947 16.2929 18.6071C16.1054 18.4196 16 18.1653 16 17.9C16 17.6348 16.1054 17.3805 16.2929 17.1929C16.4804 17.0054 16.7348 16.9 17 16.9C17.2652 16.9 17.5196 17.0054 17.7071 17.1929C17.8946 17.3805 18 17.6348 18 17.9C18 18.1653 17.8946 18.4196 17.7071 18.6071C17.5196 18.7947 17.2652 18.9 17 18.9ZM20 22.41C19.7348 22.41 19.4804 22.3047 19.2929 22.1171C19.1054 21.9296 19 21.6753 19 21.41C19 21.1448 19.1054 20.8905 19.2929 20.7029C19.4804 20.5154 19.7348 20.41 20 20.41C20.2652 20.41 20.5196 20.5154 20.7071 20.7029C20.8946 20.8905 21 21.1448 21 21.41C21 21.6753 20.8946 21.9296 20.7071 22.1171C20.5196 22.3047 20.2652 22.41 20 22.41ZM21.5 16.41C21.2348 16.41 20.9804 16.3047 20.7929 16.1171C20.6054 15.9296 20.5 15.6753 20.5 15.41C20.5 15.1448 20.6054 14.8905 20.7929 14.7029C20.9804 14.5154 21.2348 14.41 21.5 14.41C21.7652 14.41 22.0196 14.5154 22.2071 14.7029C22.3946 14.8905 22.5 15.1448 22.5 15.41C22.5 15.6753 22.3946 15.9296 22.2071 16.1171C22.0196 16.3047 21.7652 16.41 21.5 16.41Z" fill="#08C481"/>
</g>
<defs>
<clipPath id="clip0_181_469">
<rect width="24" height="24" fill="white"/>
</clipPath>
</defs>
</svg>
