<svg width="24" height="24" viewBox="0 0 24 24" fill="none" xmlns="http://www.w3.org/2000/svg">
<path fill-rule="evenodd" clip-rule="evenodd" d="M5.32271 12.4218C5.64444 12.2326 5.64444 11.7674 5.32271 11.5782L4.56137 11.1304C3.14037 10.2946 2.65289 8.47328 3.46645 7.03946C4.29751 5.57482 6.16641 5.07361 7.61882 5.92586L8.30467 6.3283C8.62138 6.51414 9.02022 6.28587 9.0204 5.91866L9.02085 4.97772C9.02164 3.33294 10.3552 2 12 2C13.6448 2 14.9784 3.33294 14.9791 4.97772L14.9796 5.91866C14.9798 6.28587 15.3786 6.51414 15.6953 6.3283L16.3812 5.92586C17.8336 5.07361 19.7025 5.57481 20.5335 7.03945C21.3471 8.47327 20.8596 10.2946 19.4386 11.1304L18.6773 11.5782C18.3555 11.7674 18.3555 12.2326 18.6773 12.4218L19.4386 12.8696C20.8596 13.7054 21.3471 15.5267 20.5335 16.9606C19.7025 18.4252 17.8336 18.9264 16.3811 18.0741L15.6953 17.6717C15.3786 17.4859 14.9798 17.7141 14.9796 18.0814L14.9791 19.0223C14.9784 20.6671 13.6448 22 12 22C10.3552 22 9.02164 20.6671 9.02085 19.0223L9.0204 18.0814C9.02022 17.7141 8.62138 17.4859 8.30467 17.6717L7.61883 18.0742C6.16642 18.9264 4.29751 18.4252 3.46645 16.9605C2.65289 15.5267 3.14037 13.7054 4.56137 12.8696L5.32271 12.4218Z" fill="#0082FF"/>
</svg>
