<svg width="24" height="24" viewBox="0 0 24 24" fill="none" xmlns="http://www.w3.org/2000/svg">
<path d="M10 17.833C10 20.134 8.21 22 6 22C3.79 22 2 20.134 2 17.833C2 16.393 3.566 14.472 4.738 13.235C4.89934 13.0617 5.09466 12.9234 5.31179 12.8289C5.52891 12.7343 5.76319 12.6855 6 12.6855C6.23681 12.6855 6.47109 12.7343 6.68821 12.8289C6.90534 12.9234 7.10066 13.0617 7.262 13.235C8.434 14.472 10 16.393 10 17.833ZM22 17.833C22 20.134 20.21 22 18 22C15.79 22 14 20.134 14 17.833C14 16.393 15.566 14.472 16.738 13.235C16.8993 13.0617 17.0947 12.9234 17.3118 12.8289C17.5289 12.7343 17.7632 12.6855 18 12.6855C18.2368 12.6855 18.4711 12.7343 18.6882 12.8289C18.9053 12.9234 19.1007 13.0617 19.262 13.235C20.434 14.472 22 16.393 22 17.833ZM16 7.83301C16 10.134 14.21 12 12 12C9.79 12 8 10.134 8 7.83301C8 6.39301 9.566 4.47201 10.738 3.23501C10.8993 3.06166 11.0947 2.92341 11.3118 2.82887C11.5289 2.73434 11.7632 2.68555 12 2.68555C12.2368 2.68555 12.4711 2.73434 12.6882 2.82887C12.9053 2.92341 13.1007 3.06166 13.262 3.23501C14.434 4.47201 16 6.39301 16 7.83301Z" fill="#0082FF"/>
</svg>
