<svg width="20" height="20" viewBox="0 0 20 20" fill="none" xmlns="http://www.w3.org/2000/svg">
<path d="M10 2.5C10.9849 2.5 11.9602 2.69399 12.8701 3.0709C13.7801 3.44781 14.6069 4.00026 15.3033 4.6967C15.9997 5.39314 16.5522 6.21993 16.9291 7.12987C17.306 8.03982 17.5 9.01509 17.5 10C17.5 10.9849 17.306 11.9602 16.9291 12.8701C16.5522 13.7801 15.9997 14.6069 15.3033 15.3033C14.6069 15.9997 13.7801 16.5522 12.8701 16.9291C11.9602 17.306 10.9849 17.5 10 17.5C8.01088 17.5 6.10322 16.7098 4.6967 15.3033C3.29018 13.8968 2.5 11.9891 2.5 10C2.5 8.01088 3.29018 6.10322 4.6967 4.6967C6.10322 3.29018 8.01088 2.5 10 2.5ZM7.8125 9.375C8.06114 9.375 8.2996 9.27623 8.47541 9.10041C8.65123 8.9246 8.75 8.68614 8.75 8.4375C8.75 8.18886 8.65123 7.9504 8.47541 7.77459C8.2996 7.59877 8.06114 7.5 7.8125 7.5C7.56386 7.5 7.3254 7.59877 7.14959 7.77459C6.97377 7.9504 6.875 8.18886 6.875 8.4375C6.875 8.68614 6.97377 8.9246 7.14959 9.10041C7.3254 9.27623 7.56386 9.375 7.8125 9.375ZM12.1875 9.375C12.4361 9.375 12.6746 9.27623 12.8504 9.10041C13.0262 8.9246 13.125 8.68614 13.125 8.4375C13.125 8.18886 13.0262 7.9504 12.8504 7.77459C12.6746 7.59877 12.4361 7.5 12.1875 7.5C11.9389 7.5 11.7004 7.59877 11.5246 7.77459C11.3488 7.9504 11.25 8.18886 11.25 8.4375C11.25 8.68614 11.3488 8.9246 11.5246 9.10041C11.7004 9.27623 11.9389 9.375 12.1875 9.375ZM12.335 13.5275C12.3867 13.5939 12.4512 13.6493 12.5247 13.6902C12.5983 13.7311 12.6794 13.7567 12.7631 13.7655C12.8468 13.7743 12.9314 13.7661 13.0118 13.7414C13.0923 13.7167 13.1669 13.676 13.2313 13.6218C13.2956 13.5676 13.3483 13.5009 13.3863 13.4258C13.4242 13.3506 13.4466 13.2686 13.4521 13.1847C13.4576 13.1007 13.4461 13.0165 13.4182 12.937C13.3904 12.8576 13.3467 12.7847 13.29 12.7225C11.6337 10.76 8.365 10.76 6.71 12.7225C6.65325 12.7847 6.60964 12.8576 6.58178 12.937C6.55393 13.0165 6.54239 13.1007 6.54788 13.1847C6.55336 13.2686 6.57575 13.3506 6.6137 13.4258C6.65165 13.5009 6.70438 13.5676 6.76873 13.6218C6.83308 13.676 6.90772 13.7167 6.98818 13.7414C7.06863 13.7661 7.15325 13.7743 7.23695 13.7655C7.32064 13.7567 7.4017 13.7311 7.47526 13.6902C7.54881 13.6493 7.61335 13.5939 7.665 13.5275C8.82125 12.1575 11.1775 12.1575 12.335 13.5275Z" fill="#7A7D82"/>
</svg>
