<svg width="20" height="20" viewBox="0 0 20 20" fill="none" xmlns="http://www.w3.org/2000/svg">
<path d="M10 17.5C9.01509 17.5 8.03982 17.306 7.12987 16.9291C6.21993 16.5522 5.39314 15.9997 4.6967 15.3033C4.00026 14.6069 3.44781 13.7801 3.0709 12.8701C2.69399 11.9602 2.5 10.9849 2.5 10C2.5 9.01509 2.69399 8.03982 3.0709 7.12987C3.44781 6.21993 4.00026 5.39314 4.6967 4.6967C5.39314 4.00026 6.21993 3.44781 7.12987 3.0709C8.03982 2.69399 9.01509 2.5 10 2.5C11.9891 2.5 13.8968 3.29018 15.3033 4.6967C16.7098 6.10322 17.5 8.01088 17.5 10C17.5 11.9891 16.7098 13.8968 15.3033 15.3033C13.8968 16.7098 11.9891 17.5 10 17.5ZM7.8125 9.6875C8.06114 9.6875 8.2996 9.58873 8.47541 9.41291C8.65123 9.2371 8.75 8.99864 8.75 8.75C8.75 8.50136 8.65123 8.2629 8.47541 8.08709C8.2996 7.91127 8.06114 7.8125 7.8125 7.8125C7.56386 7.8125 7.3254 7.91127 7.14959 8.08709C6.97377 8.2629 6.875 8.50136 6.875 8.75C6.875 8.99864 6.97377 9.2371 7.14959 9.41291C7.3254 9.58873 7.56386 9.6875 7.8125 9.6875ZM7.67 12.0837C7.6155 12.0217 7.54925 11.9711 7.47508 11.9348C7.40091 11.8986 7.32029 11.8774 7.23787 11.8724C7.15546 11.8675 7.07288 11.8789 6.99491 11.9061C6.91694 11.9333 6.84513 11.9756 6.78362 12.0307C6.7221 12.0857 6.67211 12.1524 6.63653 12.227C6.60095 12.3015 6.58048 12.3823 6.57631 12.4647C6.57214 12.5472 6.58434 12.6297 6.61222 12.7074C6.64011 12.7851 6.68311 12.8565 6.73875 12.9175C7.14923 13.3762 7.65188 13.7431 8.21385 13.9943C8.77582 14.2454 9.38446 14.3751 10 14.375C10.6155 14.3751 11.2242 14.2454 11.7862 13.9943C12.3481 13.7431 12.8508 13.3762 13.2613 12.9175C13.3169 12.8565 13.3599 12.7851 13.3878 12.7074C13.4157 12.6297 13.4279 12.5472 13.4237 12.4647C13.4195 12.3823 13.3991 12.3015 13.3635 12.227C13.3279 12.1524 13.2779 12.0857 13.2164 12.0307C13.1549 11.9756 13.0831 11.9333 13.0051 11.9061C12.9271 11.8789 12.8445 11.8675 12.7621 11.8724C12.6797 11.8774 12.5991 11.8986 12.5249 11.9348C12.4507 11.9711 12.3845 12.0217 12.33 12.0837C12.0368 12.4115 11.6776 12.6736 11.2761 12.8531C10.8746 13.0325 10.4398 13.1252 10 13.125C9.075 13.125 8.24375 12.7238 7.67 12.0837ZM12.1875 9.6875C12.4361 9.6875 12.6746 9.58873 12.8504 9.41291C13.0262 9.2371 13.125 8.99864 13.125 8.75C13.125 8.50136 13.0262 8.2629 12.8504 8.08709C12.6746 7.91127 12.4361 7.8125 12.1875 7.8125C11.9389 7.8125 11.7004 7.91127 11.5246 8.08709C11.3488 8.2629 11.25 8.50136 11.25 8.75C11.25 8.99864 11.3488 9.2371 11.5246 9.41291C11.7004 9.58873 11.9389 9.6875 12.1875 9.6875Z" fill="#0082FF"/>
</svg>
