<svg width="20" height="20" viewBox="0 0 20 20" fill="none" xmlns="http://www.w3.org/2000/svg">
<path d="M2.5 10C2.5 10.9849 2.69399 11.9602 3.0709 12.8701C3.44781 13.7801 4.00026 14.6069 4.6967 15.3033C5.39314 15.9997 6.21993 16.5522 7.12987 16.9291C8.03982 17.306 9.01509 17.5 10 17.5C10.9849 17.5 11.9602 17.306 12.8701 16.9291C13.7801 16.5522 14.6069 15.9997 15.3033 15.3033C15.9997 14.6069 16.5522 13.7801 16.9291 12.8701C17.306 11.9602 17.5 10.9849 17.5 10C17.5 8.01088 16.7098 6.10322 15.3033 4.6967C13.8968 3.29018 11.9891 2.5 10 2.5C8.01088 2.5 6.10322 3.29018 4.6967 4.6967C3.29018 6.10322 2.5 8.01088 2.5 10ZM8.75 8.75C8.75 8.87311 8.72575 8.99502 8.67864 9.10877C8.63152 9.22251 8.56247 9.32586 8.47541 9.41291C8.38836 9.49997 8.28501 9.56902 8.17127 9.61614C8.05752 9.66325 7.93561 9.6875 7.8125 9.6875C7.68939 9.6875 7.56748 9.66325 7.45373 9.61614C7.33999 9.56902 7.23664 9.49997 7.14959 9.41291C7.06253 9.32586 6.99348 9.22251 6.94636 9.10877C6.89925 8.99502 6.875 8.87311 6.875 8.75C6.875 8.50136 6.97377 8.2629 7.14959 8.08709C7.3254 7.91127 7.56386 7.8125 7.8125 7.8125C8.06114 7.8125 8.2996 7.91127 8.47541 8.08709C8.65123 8.2629 8.75 8.50136 8.75 8.75ZM13.125 8.75C13.125 8.99864 13.0262 9.2371 12.8504 9.41291C12.6746 9.58873 12.4361 9.6875 12.1875 9.6875C11.9389 9.6875 11.7004 9.58873 11.5246 9.41291C11.3488 9.2371 11.25 8.99864 11.25 8.75C11.25 8.50136 11.3488 8.2629 11.5246 8.08709C11.7004 7.91127 11.9389 7.8125 12.1875 7.8125C12.4361 7.8125 12.6746 7.91127 12.8504 8.08709C13.0262 8.2629 13.125 8.50136 13.125 8.75ZM7.5 11.875H12.5C12.6658 11.875 12.8247 11.9408 12.9419 12.0581C13.0592 12.1753 13.125 12.3342 13.125 12.5C13.125 12.6658 13.0592 12.8247 12.9419 12.9419C12.8247 13.0592 12.6658 13.125 12.5 13.125H7.5C7.33424 13.125 7.17527 13.0592 7.05806 12.9419C6.94085 12.8247 6.875 12.6658 6.875 12.5C6.875 12.3342 6.94085 12.1753 7.05806 12.0581C7.17527 11.9408 7.33424 11.875 7.5 11.875Z" fill="#39D09A"/>
</svg>
