<svg width="20" height="20" viewBox="0 0 20 20" fill="none" xmlns="http://www.w3.org/2000/svg">
<path d="M2.5 10C2.5 8.01088 3.29018 6.10322 4.6967 4.6967C6.10322 3.29018 8.01088 2.5 10 2.5C11.9891 2.5 13.8968 3.29018 15.3033 4.6967C16.7098 6.10322 17.5 8.01088 17.5 10C17.5 11.9891 16.7098 13.8968 15.3033 15.3033C13.8968 16.7098 11.9891 17.5 10 17.5C8.01088 17.5 6.10322 16.7098 4.6967 15.3033C3.29018 13.8968 2.5 11.9891 2.5 10ZM8.59375 8.59375C8.69656 8.59441 8.79673 8.56124 8.87884 8.49937C8.96095 8.4375 9.02044 8.35035 9.04815 8.25134C9.07586 8.15234 9.07025 8.04697 9.03218 7.95146C8.99412 7.85596 8.92571 7.77562 8.8375 7.72281L6.49094 6.31656C6.38427 6.25266 6.25659 6.23375 6.13598 6.26399C6.01537 6.29423 5.91171 6.37115 5.84781 6.47781C5.78391 6.58448 5.765 6.71216 5.79524 6.83277C5.82548 6.95338 5.9024 7.05704 6.00906 7.12094L7.15 7.80531C7.01303 7.89319 6.9013 8.0152 6.82579 8.15935C6.75028 8.3035 6.71359 8.46483 6.71933 8.62746C6.72508 8.79008 6.77305 8.94842 6.85854 9.08689C6.94403 9.22535 7.06409 9.33918 7.20691 9.41718C7.34974 9.49517 7.5104 9.53465 7.67311 9.53172C7.83581 9.5288 7.99495 9.48357 8.13488 9.40049C8.2748 9.31741 8.39069 9.19934 8.47115 9.05789C8.55161 8.91644 8.59386 8.75648 8.59375 8.59375ZM13.2812 8.59375C13.2812 8.43682 13.2418 8.28239 13.1667 8.14464C13.0915 8.00689 12.9829 7.89021 12.8509 7.80531L13.9909 7.12094C14.0976 7.05704 14.1745 6.95338 14.2048 6.83277C14.235 6.71216 14.2161 6.58448 14.1522 6.47781C14.0883 6.37115 13.9846 6.29423 13.864 6.26399C13.7434 6.23375 13.6157 6.25266 13.5091 6.31656L11.1663 7.72281C11.0783 7.77545 11.0101 7.85546 10.9719 7.95059C10.9338 8.04572 10.9279 8.15073 10.9551 8.24953C10.9823 8.34833 11.0412 8.43549 11.1227 8.49766C11.2042 8.55983 11.3038 8.59358 11.4062 8.59375C11.4062 8.84239 11.505 9.08085 11.6808 9.25666C11.8567 9.43248 12.0951 9.53125 12.3438 9.53125C12.5924 9.53125 12.8308 9.43248 13.0067 9.25666C13.1825 9.08085 13.2812 8.84239 13.2812 8.59375ZM13.3394 13.1781C13.6581 12.8894 13.4022 12.5069 13.3909 12.4937L13.3459 12.4431C13.2938 12.3875 13.2393 12.334 13.1828 12.2828C12.9893 12.1082 12.7782 11.9543 12.5528 11.8234C11.9903 11.4916 11.1466 11.1719 10.0019 11.1719C8.85719 11.1719 8.01344 11.4906 7.45 11.8225C7.16875 11.9875 6.96062 12.1534 6.81812 12.2819C6.74477 12.3485 6.67499 12.4189 6.60906 12.4928C6.4375 12.6981 6.44219 13.0037 6.65969 13.1772C6.75601 13.2546 6.879 13.2908 7.00189 13.278C7.12479 13.2652 7.23765 13.2043 7.31594 13.1087L7.31875 13.1059L7.34031 13.0816C7.37483 13.0451 7.4108 13.0101 7.44812 12.9766C7.59434 12.8449 7.75396 12.729 7.92437 12.6306C8.35844 12.3756 9.04 12.1094 10.0019 12.1094C10.9637 12.1094 11.6444 12.3756 12.0766 12.6306C12.295 12.7591 12.4516 12.8856 12.5519 12.9766C12.5967 13.0173 12.6396 13.0601 12.6803 13.105L12.6831 13.1078C12.8453 13.3075 13.1491 13.3516 13.3394 13.1781Z" fill="#7A7D82"/>
</svg>
