<svg width="40" height="40" viewBox="0 0 40 40" fill="none" xmlns="http://www.w3.org/2000/svg">
<path d="M34.7332 7.68332C33.8819 6.83166 32.8712 6.15607 31.7588 5.69513C30.6464 5.23419 29.454 4.99695 28.2499 4.99695C27.0457 4.99695 25.8534 5.23419 24.7409 5.69513C23.6285 6.15607 22.6178 6.83166 21.7665 7.68332L21.4141 8.03578C20.633 8.81683 19.3667 8.81683 18.5857 8.03578L18.2332 7.68332C16.5137 5.96384 14.1816 4.99784 11.7499 4.99784C9.31815 4.99784 6.98603 5.96384 5.26654 7.68332C3.54705 9.40281 2.58105 11.7349 2.58105 14.1667C2.58105 16.5984 3.54705 18.9305 5.26654 20.65L7.03321 22.4167L18.5857 33.9691C19.3667 34.7502 20.633 34.7502 21.4141 33.9691L32.9665 22.4167L34.7332 20.65C35.5849 19.7987 36.2605 18.788 36.7214 17.6756C37.1823 16.5632 37.4196 15.3708 37.4196 14.1667C37.4196 12.9625 37.1823 11.7702 36.7214 10.6577C36.2605 9.5453 35.5849 8.53458 34.7332 7.68332Z" fill="#08C481"/>
</svg>
