<svg width="40" height="40" viewBox="0 0 40 40" fill="none" xmlns="http://www.w3.org/2000/svg">
<path d="M35 19.1667C35.0057 21.3665 34.4918 23.5365 33.5 25.5C32.3241 27.853 30.5163 29.832 28.2791 31.2155C26.0419 32.599 23.4637 33.3324 20.8333 33.3334C18.9117 33.3384 17.0129 32.9468 15.2545 32.1866C14.765 31.975 14.2154 31.9282 13.7096 32.0969L8.79473 33.7351C7.23121 34.2563 5.74374 32.7688 6.26491 31.2053L7.90318 26.2905C8.07182 25.7846 8.02502 25.235 7.81341 24.7456C7.05321 22.9872 6.66166 21.0883 6.66667 19.1667C6.66768 16.5363 7.40102 13.9581 8.78453 11.721C10.168 9.4838 12.1471 7.67599 14.5 6.50005C16.4635 5.50827 18.6336 4.99431 20.8333 5.00005H21.6667C25.1406 5.1917 28.4217 6.65798 30.8819 9.11815C33.3421 11.5783 34.8083 14.8595 35 18.3334V19.1667Z" fill="#08C481"/>
</svg>
