<svg width="40" height="40" viewBox="0 0 40 40" fill="none" xmlns="http://www.w3.org/2000/svg">
<path d="M11 3.33337C10.3705 3.33337 9.77771 3.62976 9.4 4.13337L5.4 9.46671C5.14036 9.8129 5 10.234 5 10.6667V33.3334C5 34.2174 5.35119 35.0653 5.97631 35.6904C6.60143 36.3155 7.44928 36.6667 8.33333 36.6667H31.6667C32.5507 36.6667 33.3986 36.3155 34.0237 35.6904C34.6488 35.0653 35 34.2174 35 33.3334V10.6667C35 10.234 34.8596 9.8129 34.6 9.46671L30.6 4.13337C30.2223 3.62976 29.6295 3.33337 29 3.33337H11Z" fill="#08C481"/>
<path d="M8 10L32 10" stroke="#8DE4C5" stroke-width="2" stroke-linecap="round" stroke-linejoin="round"/>
<path d="M26.6668 16.6666C26.6668 18.4347 25.9645 20.1304 24.7142 21.3807C23.464 22.6309 21.7683 23.3333 20.0002 23.3333C18.2321 23.3333 16.5364 22.6309 15.2861 21.3807C14.0359 20.1304 13.3335 18.4347 13.3335 16.6666" stroke="#8DE4C5" stroke-width="2" stroke-linecap="round" stroke-linejoin="round"/>
</svg>
