<svg width="40" height="40" viewBox="0 0 40 40" fill="none" xmlns="http://www.w3.org/2000/svg">
<path d="M18.2067 6.96663C18.9404 5.4803 21.0599 5.4803 21.7936 6.96663L24.6853 12.8249C24.9764 13.4146 25.5387 13.8235 26.1894 13.9186L32.6593 14.8643C34.2991 15.104 34.9527 17.1196 33.7655 18.276L29.0871 22.8327C28.6153 23.2922 28.4 23.9545 28.5113 24.6035L29.615 31.0386C29.8953 32.6726 28.1802 33.9185 26.7129 33.1469L20.9311 30.1063C20.3483 29.7998 19.652 29.7998 19.0693 30.1063L13.2874 33.1469C11.8202 33.9185 10.1051 32.6726 10.3853 31.0386L11.489 24.6035C11.6003 23.9545 11.385 23.2922 10.9133 22.8327L6.23486 18.276C5.04767 17.1196 5.70123 15.104 7.34106 14.8643L13.8109 13.9186C14.4616 13.8235 15.024 13.4146 15.3151 12.8249L18.2067 6.96663Z" fill="#08C481"/>
</svg>
